<svg fill="none" height="20" viewBox="0 0 20 20" width="20" xmlns="http://www.w3.org/2000/svg"><g fill="#212121"><path d="m17.8536 2.14645c.1952.19526.1952.51184 0 .7071l-1.6681 1.66808c1.0806 1.38537 1.1309 3.31358.1511 4.74955-.14.20514-.301.40023-.483.58226l-.3.29996-.0024.0024-.3087.3088c-.4101.41-1.0749.41-1.4849 0l-4.22226-4.22227c-.41004-.41004-.41004-1.07484 0-1.48488l.61116-.61111c1.4562-1.45628 3.7486-1.56689 5.3319-.33183l1.668-1.66806c.1953-.19527.5119-.19527.7072 0zm-2.7132 2.70095c-1.0377-1.03198-2.6355-1.15943-3.8115-.38237-.168.11101-.3274.24048-.4753.38841l-.3.3c-.1914.19134-.1914.50156 0 .6929l3.6 3.6c.1908.19086.5.19133.6914.00142l.0015-.00142.3-.3c1.1834-1.18341 1.1854-3.10082.0061-4.28676l-.0062-.00603z"/><path d="m9.35355 8.64645c.19527.19526.19527.51184 0 .7071l-1.64649 1.64645 1.29289 1.2929 1.64645-1.6465c.1953-.1952.5119-.1952.7072 0 .1952.1953.1952.5119 0 .7072l-1.64654 1.6464.44654.4466c.5818.5818.5818 1.5252 0 2.1071l-.30003.3c-1.45628 1.4562-3.74865 1.5668-5.33194.3318l-1.66808 1.6681c-.19526.1952-.51184.1952-.7071 0-.19527-.1953-.19527-.5119 0-.7072l1.66809-1.668c-1.23496-1.5833-1.12432-3.8756.33192-5.3318l.3-.30005c.58186-.58186 1.52524-.58186 2.1071 0l.44639.44635 1.6465-1.64645c.19526-.19527.51184-.19527.7071 0zm-4.49459 6.50545c1.18588 1.1801 3.10384 1.1783 4.2875-.0053l.3-.3c.19134-.1914.19134-.5016 0-.6929l-3.6-3.6c-.19134-.1914-.50156-.1914-.6929 0l-.29999.3c-1.18362 1.1836-1.18545 3.1015-.00549 4.2874.00184.0017.00366.0035.00547.0053.00182.0019.00362.0037.00541.0055z"/></g></svg>